<svg class="svg-icon" style="width: 1em; height: 1em;vertical-align: middle;fill: white;overflow: hidden;" viewBox="0 0 1024 1024" version="1.1" xmlns="http://www.w3.org/2000/svg"><path d="M944.128 506.88h-11.264V443.904c0-44.032-35.84-79.872-79.872-79.872h-2.048C792.064 235.52 662.528 145.92 512 145.92S231.936 235.52 173.568 364.032h-2.048c-44.032 0-79.872 35.84-79.872 79.872V506.88h-11.264C35.84 506.88 0 542.72 0 586.752V655.36c0 44.032 35.84 79.872 79.872 79.872h11.264v62.976c0 44.032 35.84 79.872 79.872 79.872h155.136c25.6 0 50.176-8.704 70.144-24.064l66.56-52.224c13.824-10.752 31.232-16.896 49.152-16.896 17.408 0 34.304 5.632 48.128 16.384l71.168 53.76c19.968 14.848 44.032 23.04 69.12 23.04h151.552c44.032 0 79.872-35.84 79.872-79.872v-62.976h11.264c44.032 0 79.872-35.84 79.872-79.872v-68.608C1024 542.72 988.16 506.88 944.128 506.88zM91.648 678.4h-11.264c-12.8 0-23.04-10.24-23.04-23.04v-68.608c0-12.8 10.24-23.04 23.04-23.04h11.264v114.688z m158.72-335.36c18.944-28.16 41.984-53.248 68.608-73.728 27.136-20.992 56.832-37.376 89.088-48.64 33.28-11.776 68.096-17.408 103.936-17.408s70.656 6.144 103.936 17.408c32.256 11.264 61.952 27.648 89.088 48.64 26.624 20.992 49.664 45.568 68.608 73.728 4.608 6.656 8.704 13.824 12.8 20.992H237.568c4.096-7.168 8.192-14.336 12.8-20.992zM875.52 798.208c0 12.8-10.24 23.04-23.04 23.04H701.44c-12.288 0-24.576-4.096-34.304-11.776l-71.168-53.76c-23.552-17.92-53.248-27.648-82.944-27.648-30.208 0-60.416 10.24-84.48 29.184l-66.56 52.224c-10.24 7.68-22.528 12.288-35.328 12.288H171.52c-12.8 0-23.04-10.24-23.04-23.04V443.904c0-12.8 10.24-23.04 23.04-23.04h680.96c12.8 0 23.04 10.24 23.04 23.04v354.304z m91.136-142.848c0 12.8-10.24 23.04-23.04 23.04h-11.264v-114.176h11.264c12.8 0 23.04 10.24 23.04 23.04V655.36z"  /><path d="M325.632 478.208c-78.848 0-142.848 64-142.848 142.848s64 142.848 142.848 142.848 142.848-64 142.848-142.848S404.48 478.208 325.632 478.208z m0 228.864c-47.104 0-85.504-38.4-85.504-85.504s38.4-85.504 85.504-85.504 85.504 38.4 85.504 85.504-38.4 85.504-85.504 85.504zM698.368 478.208c-78.848 0-142.848 64-142.848 142.848s64 142.848 142.848 142.848 142.848-64 142.848-142.848-64-142.848-142.848-142.848z m0 228.864c-47.104 0-85.504-38.4-85.504-85.504s38.4-85.504 85.504-85.504 85.504 38.4 85.504 85.504-38.4 85.504-85.504 85.504z"  /></svg>